<svg width="84" height="155" viewBox="0 0 84 155" fill="none" xmlns="http://www.w3.org/2000/svg">
<g filter="url(#filter0_d_1_14)">
<path d="M25.409 97.3182C25.7727 100.985 27.3333 103.833 30.0909 105.864C32.8484 107.894 36.5909 108.909 41.3181 108.909C44.5303 108.909 47.2424 108.455 49.4545 107.545C51.6666 106.667 53.3636 105.439 54.5454 103.864C55.6969 102.288 56.2727 100.5 56.2727 98.5C56.3333 96.8333 55.9848 95.3788 55.2272 94.1363C54.4394 92.8939 53.3636 91.8182 52 90.9091C50.6363 90.0303 49.0606 89.2576 47.2727 88.5909C45.4848 87.9545 43.5757 87.4091 41.5454 86.9545L33.1818 84.9545C29.1212 84.0454 25.3939 82.8333 22 81.3182C18.606 79.803 15.6666 77.9394 13.1818 75.7273C10.6969 73.5151 8.77268 70.9091 7.40904 67.9091C6.0151 64.9091 5.30298 61.4697 5.27268 57.5909C5.30298 51.8939 6.75752 46.9545 9.63631 42.7727C12.4848 38.6212 16.606 35.3939 22 33.0909C27.3636 30.8182 33.8333 29.6818 41.409 29.6818C48.9242 29.6818 55.4697 30.8333 61.0454 33.1363C66.5909 35.4394 70.9242 38.8485 74.0454 43.3636C77.1363 47.9091 78.7575 53.5303 78.9091 60.2272H59.8636C59.6515 57.106 58.7575 54.5 57.1818 52.4091C55.5757 50.3485 53.4394 48.7879 50.7727 47.7272C48.0757 46.6969 45.0303 46.1818 41.6363 46.1818C38.303 46.1818 35.409 46.6666 32.9545 47.6363C30.4697 48.606 28.5454 49.9545 27.1818 51.6818C25.8181 53.4091 25.1363 55.3939 25.1363 57.6363C25.1363 59.7272 25.7575 61.4848 27 62.9091C28.2121 64.3333 30 65.5454 32.3636 66.5454C34.6969 67.5454 37.5606 68.4545 40.9545 69.2727L51.0909 71.8182C58.9394 73.7272 65.1363 76.7121 69.6818 80.7727C74.2272 84.8333 76.4848 90.303 76.4545 97.1818C76.4848 102.818 74.9848 107.742 71.9545 111.955C68.8939 116.167 64.6969 119.455 59.3636 121.818C54.0303 124.182 47.9697 125.364 41.1818 125.364C34.2727 125.364 28.2424 124.182 23.0909 121.818C17.909 119.455 13.8787 116.167 11 111.955C8.12116 107.742 6.63632 102.864 6.54541 97.3182H25.409Z" fill="#33EB9B"/>
</g>
<defs>
<filter id="filter0_d_1_14" x="1.27269" y="29.6818" width="81.6364" height="103.682" filterUnits="userSpaceOnUse" color-interpolation-filters="sRGB">
<feFlood flood-opacity="0" result="BackgroundImageFix"/>
<feColorMatrix in="SourceAlpha" type="matrix" values="0 0 0 0 0 0 0 0 0 0 0 0 0 0 0 0 0 0 127 0" result="hardAlpha"/>
<feOffset dy="4"/>
<feGaussianBlur stdDeviation="2"/>
<feComposite in2="hardAlpha" operator="out"/>
<feColorMatrix type="matrix" values="0 0 0 0 0.9375 0 0 0 0 0.9375 0 0 0 0 0.9375 0 0 0 0.1 0"/>
<feBlend mode="normal" in2="BackgroundImageFix" result="effect1_dropShadow_1_14"/>
<feBlend mode="normal" in="SourceGraphic" in2="effect1_dropShadow_1_14" result="shape"/>
</filter>
</defs>
</svg>
