<svg width="397" height="116" viewBox="0 0 397 116" fill="none" xmlns="http://www.w3.org/2000/svg">
<rect y="99" width="397" height="17" rx="8.5" fill="#6366F1"/>
<mask id="path-2-outside-1_15_2" maskUnits="userSpaceOnUse" x="1" y="20" width="233" height="77" fill="black">
<rect fill="white" x="1" y="20" width="233" height="77"/>
<path d="M43.9432 43.2614C43.6705 40.5114 42.5 38.375 40.4318 36.8523C38.3636 35.3295 35.5568 34.5682 32.0114 34.5682C29.6023 34.5682 27.5682 34.9091 25.9091 35.5909C24.25 36.25 22.9773 37.1705 22.0909 38.3523C21.2273 39.5341 20.7955 40.875 20.7955 42.375C20.75 43.625 21.0114 44.7159 21.5795 45.6477C22.1705 46.5795 22.9773 47.3864 24 48.0682C25.0227 48.7273 26.2045 49.3068 27.5455 49.8068C28.8864 50.2841 30.3182 50.6932 31.8409 51.0341L38.1136 52.5341C41.1591 53.2159 43.9545 54.125 46.5 55.2614C49.0455 56.3977 51.25 57.7955 53.1136 59.4545C54.9773 61.1136 56.4205 63.0682 57.4432 65.3182C58.4886 67.5682 59.0227 70.1477 59.0455 73.0568C59.0227 77.3295 57.9318 81.0341 55.7727 84.1705C53.6364 87.2841 50.5455 89.7045 46.5 91.4318C42.4773 93.1364 37.625 93.9886 31.9432 93.9886C26.3068 93.9886 21.3977 93.125 17.2159 91.3977C13.0568 89.6705 9.80682 87.1136 7.46591 83.7273C5.14773 80.3182 3.93182 76.1023 3.81818 71.0795H18.1023C18.2614 73.4205 18.9318 75.375 20.1136 76.9432C21.3182 78.4886 22.9205 79.6591 24.9205 80.4545C26.9432 81.2273 29.2273 81.6136 31.7727 81.6136C34.2727 81.6136 36.4432 81.25 38.2841 80.5227C40.1477 79.7955 41.5909 78.7841 42.6136 77.4886C43.6364 76.1932 44.1477 74.7045 44.1477 73.0227C44.1477 71.4545 43.6818 70.1364 42.75 69.0682C41.8409 68 40.5 67.0909 38.7273 66.3409C36.9773 65.5909 34.8295 64.9091 32.2841 64.2955L24.6818 62.3864C18.7955 60.9545 14.1477 58.7159 10.7386 55.6705C7.32955 52.625 5.63636 48.5227 5.65909 43.3636C5.63636 39.1364 6.76136 35.4432 9.03409 32.2841C11.3295 29.125 14.4773 26.6591 18.4773 24.8864C22.4773 23.1136 27.0227 22.2273 32.1136 22.2273C37.2955 22.2273 41.8182 23.1136 45.6818 24.8864C49.5682 26.6591 52.5909 29.125 54.75 32.2841C56.9091 35.4432 58.0227 39.1023 58.0909 43.2614H43.9432ZM92.3608 94.0227C87.0653 94.0227 82.4858 92.8977 78.6222 90.6477C74.7813 88.375 71.8153 85.2159 69.7244 81.1705C67.6335 77.1023 66.5881 72.3864 66.5881 67.0227C66.5881 61.6136 67.6335 56.8864 69.7244 52.8409C71.8153 48.7727 74.7813 45.6136 78.6222 43.3636C82.4858 41.0909 87.0653 39.9545 92.3608 39.9545C97.6562 39.9545 102.224 41.0909 106.065 43.3636C109.929 45.6136 112.906 48.7727 114.997 52.8409C117.088 56.8864 118.134 61.6136 118.134 67.0227C118.134 72.3864 117.088 77.1023 114.997 81.1705C112.906 85.2159 109.929 88.375 106.065 90.6477C102.224 92.8977 97.6562 94.0227 92.3608 94.0227ZM92.429 82.7727C94.8381 82.7727 96.8494 82.0909 98.4631 80.7273C100.077 79.3409 101.293 77.4545 102.111 75.0682C102.952 72.6818 103.372 69.9659 103.372 66.9205C103.372 63.875 102.952 61.1591 102.111 58.7727C101.293 56.3864 100.077 54.5 98.4631 53.1136C96.8494 51.7273 94.8381 51.0341 92.429 51.0341C89.9972 51.0341 87.9517 51.7273 86.2926 53.1136C84.6563 54.5 83.4176 56.3864 82.5767 58.7727C81.7585 61.1591 81.3494 63.875 81.3494 66.9205C81.3494 69.9659 81.7585 72.6818 82.5767 75.0682C83.4176 77.4545 84.6563 79.3409 86.2926 80.7273C87.9517 82.0909 89.9972 82.7727 92.429 82.7727ZM142.099 62.7273V93H127.577V40.6364H141.418V49.875H142.031C143.19 46.8295 145.134 44.4205 147.861 42.6477C150.588 40.8523 153.895 39.9545 157.781 39.9545C161.418 39.9545 164.588 40.75 167.293 42.3409C169.997 43.9318 172.099 46.2045 173.599 49.1591C175.099 52.0909 175.849 55.5909 175.849 59.6591V93H161.327V62.25C161.349 59.0455 160.531 56.5455 158.872 54.75C157.213 52.9318 154.929 52.0227 152.02 52.0227C150.065 52.0227 148.338 52.4432 146.838 53.2841C145.361 54.125 144.202 55.3523 143.361 56.9659C142.543 58.5568 142.122 60.4773 142.099 62.7273ZM202.227 93.9886C198.886 93.9886 195.909 93.4091 193.295 92.25C190.682 91.0682 188.614 89.3295 187.091 87.0341C185.591 84.7159 184.841 81.8295 184.841 78.375C184.841 75.4659 185.375 73.0227 186.443 71.0455C187.511 69.0682 188.966 67.4773 190.807 66.2727C192.648 65.0682 194.739 64.1591 197.08 63.5455C199.443 62.9318 201.92 62.5 204.511 62.25C207.557 61.9318 210.011 61.6364 211.875 61.3636C213.739 61.0682 215.091 60.6364 215.932 60.0682C216.773 59.5 217.193 58.6591 217.193 57.5455V57.3409C217.193 55.1818 216.511 53.5114 215.148 52.3295C213.807 51.1477 211.898 50.5568 209.42 50.5568C206.807 50.5568 204.727 51.1364 203.182 52.2955C201.636 53.4318 200.614 54.8636 200.114 56.5909L186.682 55.5C187.364 52.3182 188.705 49.5682 190.705 47.25C192.705 44.9091 195.284 43.1136 198.443 41.8636C201.625 40.5909 205.307 39.9545 209.489 39.9545C212.398 39.9545 215.182 40.2955 217.841 40.9773C220.523 41.6591 222.898 42.7159 224.966 44.1477C227.057 45.5795 228.705 47.4205 229.909 49.6705C231.114 51.8977 231.716 54.5682 231.716 57.6818V93H217.943V85.7386H217.534C216.693 87.375 215.568 88.8182 214.159 90.0682C212.75 91.2955 211.057 92.2614 209.08 92.9659C207.102 93.6477 204.818 93.9886 202.227 93.9886ZM206.386 83.9659C208.523 83.9659 210.409 83.5455 212.045 82.7045C213.682 81.8409 214.966 80.6818 215.898 79.2273C216.83 77.7727 217.295 76.125 217.295 74.2841V68.7273C216.841 69.0227 216.216 69.2955 215.42 69.5455C214.648 69.7727 213.773 69.9886 212.795 70.1932C211.818 70.375 210.841 70.5455 209.864 70.7045C208.886 70.8409 208 70.9659 207.205 71.0795C205.5 71.3295 204.011 71.7273 202.739 72.2727C201.466 72.8182 200.477 73.5568 199.773 74.4886C199.068 75.3977 198.716 76.5341 198.716 77.8977C198.716 79.875 199.432 81.3864 200.864 82.4318C202.318 83.4545 204.159 83.9659 206.386 83.9659Z"/>
</mask>
<path d="M43.9432 43.2614C43.6705 40.5114 42.5 38.375 40.4318 36.8523C38.3636 35.3295 35.5568 34.5682 32.0114 34.5682C29.6023 34.5682 27.5682 34.9091 25.9091 35.5909C24.25 36.25 22.9773 37.1705 22.0909 38.3523C21.2273 39.5341 20.7955 40.875 20.7955 42.375C20.75 43.625 21.0114 44.7159 21.5795 45.6477C22.1705 46.5795 22.9773 47.3864 24 48.0682C25.0227 48.7273 26.2045 49.3068 27.5455 49.8068C28.8864 50.2841 30.3182 50.6932 31.8409 51.0341L38.1136 52.5341C41.1591 53.2159 43.9545 54.125 46.5 55.2614C49.0455 56.3977 51.25 57.7955 53.1136 59.4545C54.9773 61.1136 56.4205 63.0682 57.4432 65.3182C58.4886 67.5682 59.0227 70.1477 59.0455 73.0568C59.0227 77.3295 57.9318 81.0341 55.7727 84.1705C53.6364 87.2841 50.5455 89.7045 46.5 91.4318C42.4773 93.1364 37.625 93.9886 31.9432 93.9886C26.3068 93.9886 21.3977 93.125 17.2159 91.3977C13.0568 89.6705 9.80682 87.1136 7.46591 83.7273C5.14773 80.3182 3.93182 76.1023 3.81818 71.0795H18.1023C18.2614 73.4205 18.9318 75.375 20.1136 76.9432C21.3182 78.4886 22.9205 79.6591 24.9205 80.4545C26.9432 81.2273 29.2273 81.6136 31.7727 81.6136C34.2727 81.6136 36.4432 81.25 38.2841 80.5227C40.1477 79.7955 41.5909 78.7841 42.6136 77.4886C43.6364 76.1932 44.1477 74.7045 44.1477 73.0227C44.1477 71.4545 43.6818 70.1364 42.75 69.0682C41.8409 68 40.5 67.0909 38.7273 66.3409C36.9773 65.5909 34.8295 64.9091 32.2841 64.2955L24.6818 62.3864C18.7955 60.9545 14.1477 58.7159 10.7386 55.6705C7.32955 52.625 5.63636 48.5227 5.65909 43.3636C5.63636 39.1364 6.76136 35.4432 9.03409 32.2841C11.3295 29.125 14.4773 26.6591 18.4773 24.8864C22.4773 23.1136 27.0227 22.2273 32.1136 22.2273C37.2955 22.2273 41.8182 23.1136 45.6818 24.8864C49.5682 26.6591 52.5909 29.125 54.75 32.2841C56.9091 35.4432 58.0227 39.1023 58.0909 43.2614H43.9432ZM92.3608 94.0227C87.0653 94.0227 82.4858 92.8977 78.6222 90.6477C74.7813 88.375 71.8153 85.2159 69.7244 81.1705C67.6335 77.1023 66.5881 72.3864 66.5881 67.0227C66.5881 61.6136 67.6335 56.8864 69.7244 52.8409C71.8153 48.7727 74.7813 45.6136 78.6222 43.3636C82.4858 41.0909 87.0653 39.9545 92.3608 39.9545C97.6562 39.9545 102.224 41.0909 106.065 43.3636C109.929 45.6136 112.906 48.7727 114.997 52.8409C117.088 56.8864 118.134 61.6136 118.134 67.0227C118.134 72.3864 117.088 77.1023 114.997 81.1705C112.906 85.2159 109.929 88.375 106.065 90.6477C102.224 92.8977 97.6562 94.0227 92.3608 94.0227ZM92.429 82.7727C94.8381 82.7727 96.8494 82.0909 98.4631 80.7273C100.077 79.3409 101.293 77.4545 102.111 75.0682C102.952 72.6818 103.372 69.9659 103.372 66.9205C103.372 63.875 102.952 61.1591 102.111 58.7727C101.293 56.3864 100.077 54.5 98.4631 53.1136C96.8494 51.7273 94.8381 51.0341 92.429 51.0341C89.9972 51.0341 87.9517 51.7273 86.2926 53.1136C84.6563 54.5 83.4176 56.3864 82.5767 58.7727C81.7585 61.1591 81.3494 63.875 81.3494 66.9205C81.3494 69.9659 81.7585 72.6818 82.5767 75.0682C83.4176 77.4545 84.6563 79.3409 86.2926 80.7273C87.9517 82.0909 89.9972 82.7727 92.429 82.7727ZM142.099 62.7273V93H127.577V40.6364H141.418V49.875H142.031C143.19 46.8295 145.134 44.4205 147.861 42.6477C150.588 40.8523 153.895 39.9545 157.781 39.9545C161.418 39.9545 164.588 40.75 167.293 42.3409C169.997 43.9318 172.099 46.2045 173.599 49.1591C175.099 52.0909 175.849 55.5909 175.849 59.6591V93H161.327V62.25C161.349 59.0455 160.531 56.5455 158.872 54.75C157.213 52.9318 154.929 52.0227 152.02 52.0227C150.065 52.0227 148.338 52.4432 146.838 53.2841C145.361 54.125 144.202 55.3523 143.361 56.9659C142.543 58.5568 142.122 60.4773 142.099 62.7273ZM202.227 93.9886C198.886 93.9886 195.909 93.4091 193.295 92.25C190.682 91.0682 188.614 89.3295 187.091 87.0341C185.591 84.7159 184.841 81.8295 184.841 78.375C184.841 75.4659 185.375 73.0227 186.443 71.0455C187.511 69.0682 188.966 67.4773 190.807 66.2727C192.648 65.0682 194.739 64.1591 197.08 63.5455C199.443 62.9318 201.92 62.5 204.511 62.25C207.557 61.9318 210.011 61.6364 211.875 61.3636C213.739 61.0682 215.091 60.6364 215.932 60.0682C216.773 59.5 217.193 58.6591 217.193 57.5455V57.3409C217.193 55.1818 216.511 53.5114 215.148 52.3295C213.807 51.1477 211.898 50.5568 209.42 50.5568C206.807 50.5568 204.727 51.1364 203.182 52.2955C201.636 53.4318 200.614 54.8636 200.114 56.5909L186.682 55.5C187.364 52.3182 188.705 49.5682 190.705 47.25C192.705 44.9091 195.284 43.1136 198.443 41.8636C201.625 40.5909 205.307 39.9545 209.489 39.9545C212.398 39.9545 215.182 40.2955 217.841 40.9773C220.523 41.6591 222.898 42.7159 224.966 44.1477C227.057 45.5795 228.705 47.4205 229.909 49.6705C231.114 51.8977 231.716 54.5682 231.716 57.6818V93H217.943V85.7386H217.534C216.693 87.375 215.568 88.8182 214.159 90.0682C212.75 91.2955 211.057 92.2614 209.08 92.9659C207.102 93.6477 204.818 93.9886 202.227 93.9886ZM206.386 83.9659C208.523 83.9659 210.409 83.5455 212.045 82.7045C213.682 81.8409 214.966 80.6818 215.898 79.2273C216.83 77.7727 217.295 76.125 217.295 74.2841V68.7273C216.841 69.0227 216.216 69.2955 215.42 69.5455C214.648 69.7727 213.773 69.9886 212.795 70.1932C211.818 70.375 210.841 70.5455 209.864 70.7045C208.886 70.8409 208 70.9659 207.205 71.0795C205.5 71.3295 204.011 71.7273 202.739 72.2727C201.466 72.8182 200.477 73.5568 199.773 74.4886C199.068 75.3977 198.716 76.5341 198.716 77.8977C198.716 79.875 199.432 81.3864 200.864 82.4318C202.318 83.4545 204.159 83.9659 206.386 83.9659Z" fill="#6366F1"/>
<path d="M43.9432 43.2614L41.9529 43.4587L42.1317 45.2614H43.9432V43.2614ZM25.9091 35.5909L26.6475 37.4496L26.6584 37.4453L26.6693 37.4408L25.9091 35.5909ZM22.0909 38.3523L20.4909 37.1523L20.4835 37.1622L20.4761 37.1722L22.0909 38.3523ZM20.7955 42.375L22.7941 42.4477L22.7955 42.4114V42.375H20.7955ZM21.5795 45.6477L19.872 46.6889L19.8811 46.704L19.8905 46.7188L21.5795 45.6477ZM24 48.0682L22.8906 49.7323L22.9035 49.7409L22.9166 49.7493L24 48.0682ZM27.5455 49.8068L26.8467 51.6808L26.8607 51.686L26.8748 51.691L27.5455 49.8068ZM31.8409 51.0341L32.3061 49.0889L32.292 49.0856L32.2779 49.0824L31.8409 51.0341ZM38.1136 52.5341L37.6485 54.4792L37.6626 54.4826L37.6767 54.4858L38.1136 52.5341ZM46.5 55.2614L45.6847 57.0876L45.6847 57.0876L46.5 55.2614ZM53.1136 59.4545L54.4435 57.9607L54.4435 57.9607L53.1136 59.4545ZM57.4432 65.3182L55.6225 66.1458L55.6259 66.1534L55.6294 66.1609L57.4432 65.3182ZM59.0455 73.0568L61.0454 73.0675L61.0455 73.0543L61.0454 73.0412L59.0455 73.0568ZM55.7727 84.1705L54.1253 83.0364L54.1236 83.0389L55.7727 84.1705ZM46.5 91.4318L47.2803 93.2733L47.2853 93.2712L46.5 91.4318ZM17.2159 91.3977L16.4488 93.2448L16.4524 93.2463L17.2159 91.3977ZM7.46591 83.7273L5.81206 84.8519L5.81637 84.8582L5.82073 84.8645L7.46591 83.7273ZM3.81818 71.0795V69.0795H1.77242L1.81869 71.1248L3.81818 71.0795ZM18.1023 71.0795L20.0977 70.9439L19.971 69.0795H18.1023V71.0795ZM20.1136 76.9432L18.5164 78.1469L18.5262 78.1599L18.5362 78.1727L20.1136 76.9432ZM24.9205 80.4545L24.1813 82.313L24.194 82.318L24.2067 82.3229L24.9205 80.4545ZM38.2841 80.5227L37.557 78.6596L37.5492 78.6626L38.2841 80.5227ZM42.6136 77.4886L44.1834 78.7279L44.1834 78.7279L42.6136 77.4886ZM42.75 69.0682L41.2269 70.3644L41.2348 70.3737L41.2429 70.3829L42.75 69.0682ZM38.7273 66.3409L37.9394 68.1792L37.948 68.1828L38.7273 66.3409ZM32.2841 64.2955L31.797 66.2352L31.8062 66.2375L31.8154 66.2398L32.2841 64.2955ZM24.6818 62.3864L25.1689 60.4466L25.1617 60.4448L25.1545 60.443L24.6818 62.3864ZM10.7386 55.6705L9.40621 57.162L9.40621 57.162L10.7386 55.6705ZM5.65909 43.3636L7.65907 43.3724L7.65911 43.3627L7.65906 43.3529L5.65909 43.3636ZM9.03409 32.2841L7.4161 31.1084L7.41058 31.1161L9.03409 32.2841ZM45.6818 24.8864L44.8478 26.7042L44.8518 26.706L45.6818 24.8864ZM54.75 32.2841L53.0988 33.4126L53.0988 33.4126L54.75 32.2841ZM58.0909 43.2614V45.2614H60.124L60.0906 43.2286L58.0909 43.2614ZM45.9334 43.064C45.6096 39.7984 44.1796 37.128 41.6176 35.2417L39.246 38.4628C40.8204 39.622 41.7313 41.2243 41.9529 43.4587L45.9334 43.064ZM41.6176 35.2417C39.0968 33.3857 35.8246 32.5682 32.0114 32.5682V36.5682C35.289 36.5682 37.6305 37.2733 39.246 38.4628L41.6176 35.2417ZM32.0114 32.5682C29.4258 32.5682 27.1165 32.9324 25.1489 33.741L26.6693 37.4408C28.0199 36.8858 29.7787 36.5682 32.0114 36.5682V32.5682ZM25.1707 33.7322C23.2409 34.4988 21.6404 35.6196 20.4909 37.1523L23.6909 39.5523C24.3141 38.7213 25.2591 38.0012 26.6475 37.4496L25.1707 33.7322ZM20.4761 37.1722C19.3556 38.7056 18.7955 40.462 18.7955 42.375H22.7955C22.7955 41.288 23.0989 40.3626 23.7057 39.5323L20.4761 37.1722ZM18.7968 42.3023C18.7392 43.8853 19.071 45.3754 19.872 46.6889L23.2871 44.6065C22.9517 44.0564 22.7608 43.3647 22.7941 42.4477L18.7968 42.3023ZM19.8905 46.7188C20.6473 47.9122 21.662 48.9132 22.8906 49.7323L25.1094 46.4041C24.2926 45.8595 23.6936 45.2469 23.2686 44.5766L19.8905 46.7188ZM22.9166 49.7493C24.0792 50.4985 25.3939 51.1391 26.8467 51.6808L28.2442 47.9329C27.0152 47.4746 25.9663 46.956 25.0834 46.387L22.9166 49.7493ZM26.8748 51.691C28.2991 52.198 29.8095 52.6288 31.404 52.9858L32.2779 49.0824C30.8269 48.7576 29.4737 48.3702 28.2161 47.9226L26.8748 51.691ZM31.3758 52.9792L37.6485 54.4792L38.5788 50.5889L32.3061 49.0889L31.3758 52.9792ZM37.6767 54.4858C40.6074 55.1419 43.2743 56.0116 45.6847 57.0876L47.3153 53.4351C44.6348 52.2384 41.7108 51.2899 38.5506 50.5824L37.6767 54.4858ZM45.6847 57.0876C48.0643 58.15 50.0904 59.4408 51.7838 60.9484L54.4435 57.9607C52.4096 56.1501 50.0266 54.6455 47.3153 53.4351L45.6847 57.0876ZM51.7838 60.9484C53.4412 62.4239 54.7162 64.1521 55.6225 66.1458L59.2639 64.4906C58.1247 61.9842 56.5134 59.8034 54.4435 57.9607L51.7838 60.9484ZM55.6294 66.1609C56.5354 68.1108 57.0246 70.4003 57.0455 73.0724L61.0454 73.0412C61.0208 69.8951 60.4419 67.0256 59.257 64.4754L55.6294 66.1609ZM57.0455 73.0462C57.0246 76.9684 56.0296 80.2702 54.1253 83.0364L57.4201 85.3045C59.834 81.798 61.0208 77.6907 61.0454 73.0675L57.0455 73.0462ZM54.1236 83.0389C52.2356 85.7906 49.4695 87.9893 45.7147 89.5925L47.2853 93.2712C51.6214 91.4198 55.0372 88.7776 57.4219 85.302L54.1236 83.0389ZM45.7197 89.5903C42.0059 91.1639 37.4338 91.9886 31.9432 91.9886V95.9886C37.8162 95.9886 42.9486 95.1088 47.2803 93.2733L45.7197 89.5903ZM31.9432 91.9886C26.5066 91.9886 21.8676 91.1552 17.9794 89.5492L16.4524 93.2463C20.9279 95.0948 26.1071 95.9886 31.9432 95.9886V91.9886ZM17.983 89.5507C14.144 87.9564 11.2131 85.6308 9.11109 82.59L5.82073 84.8645C8.40049 88.5964 11.9696 91.3845 16.4488 93.2448L17.983 89.5507ZM9.11976 82.6027C7.06173 79.5761 5.9245 75.7563 5.81767 71.0343L1.81869 71.1248C1.93913 76.4482 3.23373 81.0602 5.81206 84.8519L9.11976 82.6027ZM3.81818 73.0795H18.1023V69.0795H3.81818V73.0795ZM16.1069 71.2152C16.2871 73.8667 17.0589 76.2128 18.5164 78.1469L21.7109 75.7395C20.8048 74.5372 20.2357 72.9742 20.0977 70.9439L16.1069 71.2152ZM18.5362 78.1727C19.9804 80.0257 21.8844 81.3994 24.1813 82.313L25.6596 78.5961C23.9565 77.9188 22.6559 76.9516 21.6911 75.7137L18.5362 78.1727ZM24.2067 82.3229C26.4935 83.1965 29.0253 83.6136 31.7727 83.6136V79.6136C29.4292 79.6136 27.3928 79.2581 25.6342 78.5862L24.2067 82.3229ZM31.7727 83.6136C34.4608 83.6136 36.8915 83.2233 39.0189 82.3828L37.5492 78.6626C35.9949 79.2767 34.0847 79.6136 31.7727 79.6136V83.6136ZM39.0112 82.3859C41.136 81.5567 42.8978 80.3563 44.1834 78.7279L41.0439 76.2493C40.284 77.2119 39.1595 78.0342 37.557 78.6596L39.0112 82.3859ZM44.1834 78.7279C45.4905 77.0723 46.1477 75.145 46.1477 73.0227H42.1477C42.1477 74.2641 41.7823 75.3141 41.0439 76.2493L44.1834 78.7279ZM46.1477 73.0227C46.1477 71.0264 45.5413 69.2255 44.2571 67.7534L41.2429 70.3829C41.8224 71.0472 42.1477 71.8827 42.1477 73.0227H46.1477ZM44.2731 67.7719C43.1011 66.3949 41.4652 65.3276 39.5066 64.499L37.948 68.1828C39.5348 68.8542 40.5807 69.6051 41.2269 70.3644L44.2731 67.7719ZM39.5151 64.5026C37.6317 63.6954 35.37 62.9821 32.7528 62.3512L31.8154 66.2398C34.2891 66.8361 36.3228 67.4864 37.9394 68.1792L39.5151 64.5026ZM32.7712 62.3557L25.1689 60.4466L24.1947 64.3261L31.797 66.2352L32.7712 62.3557ZM25.1545 60.443C19.4875 59.0646 15.1683 56.9458 12.0711 54.1789L9.40621 57.162C13.1271 60.486 18.1034 62.8445 24.2091 64.3297L25.1545 60.443ZM12.0711 54.1789C9.14652 51.5663 7.63851 48.0408 7.65907 43.3724L3.65911 43.3548C3.63422 49.0046 5.51257 53.6837 9.40621 57.162L12.0711 54.1789ZM7.65906 43.3529C7.6384 39.51 8.65338 36.238 10.6576 33.4521L7.41058 31.1161C4.86935 34.6484 3.63433 38.7628 3.65912 43.3744L7.65906 43.3529ZM10.6521 33.4597C12.7164 30.6187 15.57 28.3624 19.2876 26.7148L17.6669 23.0579C13.3846 24.9557 9.94268 27.6313 7.41612 31.1084L10.6521 33.4597ZM19.2876 26.7148C22.9941 25.0722 27.2566 24.2273 32.1136 24.2273V20.2273C26.7889 20.2273 21.9605 21.1551 17.6669 23.0579L19.2876 26.7148ZM32.1136 24.2273C37.0693 24.2273 41.2966 25.0748 44.8478 26.7042L46.5159 23.0686C42.3397 21.1525 37.5216 20.2273 32.1136 20.2273V24.2273ZM44.8518 26.706C48.4462 28.3455 51.1686 30.5884 53.0988 33.4126L56.4012 31.1556C54.0132 27.6616 50.6902 24.9726 46.5118 23.0667L44.8518 26.706ZM53.0988 33.4126C55.0177 36.2203 56.0288 39.491 56.0912 43.2941L60.0906 43.2286C60.0166 38.7136 58.8005 34.6661 56.4012 31.1556L53.0988 33.4126ZM58.0909 41.2614H43.9432V45.2614H58.0909V41.2614ZM78.6222 90.6477L77.6036 92.369L77.6157 92.376L78.6222 90.6477ZM69.7244 81.1705L67.9456 82.0847L67.9477 82.0888L69.7244 81.1705ZM69.7244 52.8409L71.5012 53.7592L71.5032 53.7552L69.7244 52.8409ZM78.6222 43.3636L79.6331 45.0893L79.6362 45.0875L78.6222 43.3636ZM106.065 43.3636L105.047 45.0849L105.059 45.0919L106.065 43.3636ZM114.997 52.8409L113.218 53.7552L113.22 53.7592L114.997 52.8409ZM114.997 81.1705L116.774 82.0888L116.776 82.0847L114.997 81.1705ZM106.065 90.6477L107.076 92.3734L107.079 92.3716L106.065 90.6477ZM98.4631 80.7273L99.754 82.2549L99.7602 82.2496L99.7664 82.2443L98.4631 80.7273ZM102.111 75.0682L100.224 74.4035L100.222 74.4115L100.219 74.4195L102.111 75.0682ZM102.111 58.7727L100.219 59.4214L100.222 59.4294L100.224 59.4374L102.111 58.7727ZM86.2926 53.1136L85.0101 51.5789L84.9998 51.5877L86.2926 53.1136ZM82.5767 58.7727L80.6904 58.108L80.6876 58.116L80.6848 58.1241L82.5767 58.7727ZM82.5767 75.0682L80.6848 75.7168L80.6876 75.7249L80.6904 75.7329L82.5767 75.0682ZM86.2926 80.7273L84.9998 82.2532L85.0112 82.2629L85.0227 82.2724L86.2926 80.7273ZM92.3608 92.0227C87.3534 92.0227 83.1346 90.9612 79.6286 88.9194L77.6157 92.376C81.837 94.8343 86.7773 96.0227 92.3608 96.0227V92.0227ZM79.6406 88.9265C76.1297 86.849 73.4234 83.9713 71.5011 80.2522L67.9477 82.0888C70.2073 86.4605 73.4328 89.901 77.6037 92.369L79.6406 88.9265ZM71.5032 80.2562C69.5808 76.5159 68.5881 72.1232 68.5881 67.0227H64.5881C64.5881 72.6495 65.6862 77.6887 67.9456 82.0847L71.5032 80.2562ZM68.5881 67.0227C68.5881 61.8735 69.5821 57.4721 71.5011 53.7592L67.9477 51.9226C65.6849 56.3006 64.5881 61.3538 64.5881 67.0227H68.5881ZM71.5032 53.7552C73.4255 50.0151 76.1294 47.1418 79.6331 45.0893L77.6112 41.6379C73.4331 44.0855 70.2052 47.5304 67.9456 51.9267L71.5032 53.7552ZM79.6362 45.0875C83.1408 43.026 87.3568 41.9545 92.3608 41.9545V37.9545C86.7739 37.9545 81.8308 39.1558 77.6081 41.6398L79.6362 45.0875ZM92.3608 41.9545C97.3652 41.9545 101.568 43.0261 105.047 45.0849L107.084 41.6424C102.881 39.1557 97.9473 37.9545 92.3608 37.9545V41.9545ZM105.059 45.0919C108.585 47.1452 111.298 50.0182 113.218 53.7552L116.776 51.9267C114.515 47.5273 111.273 44.0821 107.072 41.6353L105.059 45.0919ZM113.22 53.7592C115.139 57.4721 116.134 61.8735 116.134 67.0227H120.134C120.134 61.3538 119.037 56.3006 116.774 51.9226L113.22 53.7592ZM116.134 67.0227C116.134 72.1232 115.141 76.5159 113.218 80.2562L116.776 82.0847C119.035 77.6887 120.134 72.6495 120.134 67.0227H116.134ZM113.22 80.2522C111.3 83.9682 108.584 86.8456 105.051 88.9239L107.079 92.3716C111.274 89.9044 114.513 86.4636 116.774 82.0888L113.22 80.2522ZM105.054 88.922C101.574 90.961 97.3686 92.0227 92.3608 92.0227V96.0227C97.9439 96.0227 102.875 94.8344 107.076 92.3734L105.054 88.922ZM92.429 84.7727C95.2403 84.7727 97.7291 83.9661 99.754 82.2549L97.1721 79.1997C95.9698 80.2158 94.4358 80.7727 92.429 80.7727V84.7727ZM99.7664 82.2443C101.696 80.5862 103.091 78.3769 104.003 75.7168L100.219 74.4195C99.4946 76.5322 98.4571 78.0957 97.1597 79.2103L99.7664 82.2443ZM103.997 75.7329C104.927 73.0945 105.372 70.1476 105.372 66.9205H101.372C101.372 69.7842 100.977 72.2691 100.224 74.4035L103.997 75.7329ZM105.372 66.9205C105.372 63.6933 104.927 60.7464 103.997 58.108L100.224 59.4374C100.977 61.5718 101.372 64.0567 101.372 66.9205H105.372ZM104.003 58.1241C103.091 55.464 101.696 53.2548 99.7664 51.5966L97.1597 54.6306C98.4571 55.7452 99.4946 57.3087 100.219 59.4214L104.003 58.1241ZM99.7664 51.5966C97.742 49.8573 95.2488 49.0341 92.429 49.0341V53.0341C94.4273 53.0341 95.9569 53.5972 97.1597 54.6306L99.7664 51.5966ZM92.429 49.0341C89.5906 49.0341 87.074 49.8543 85.0102 51.5789L87.5751 54.6484C88.8294 53.6002 90.4038 53.0341 92.429 53.0341V49.0341ZM84.9998 51.5877C83.0476 53.2416 81.6279 55.4476 80.6904 58.108L84.463 59.4374C85.2074 57.3251 86.2649 55.7584 87.5854 54.6396L84.9998 51.5877ZM80.6848 58.1241C79.782 60.7573 79.3494 63.6986 79.3494 66.9205H83.3494C83.3494 64.0514 83.7351 61.5608 84.4686 59.4214L80.6848 58.1241ZM79.3494 66.9205C79.3494 70.1423 79.782 73.0836 80.6848 75.7168L84.4686 74.4195C83.7351 72.2801 83.3494 69.7895 83.3494 66.9205H79.3494ZM80.6904 75.7329C81.6279 78.3933 83.0476 80.5993 84.9998 82.2532L87.5854 79.2013C86.2649 78.0825 85.2074 76.5158 84.463 74.4035L80.6904 75.7329ZM85.0227 82.2724C87.0868 83.9689 89.5989 84.7727 92.429 84.7727V80.7727C90.3955 80.7727 88.8166 80.213 87.5625 79.1822L85.0227 82.2724ZM142.099 62.7273L140.1 62.7071L140.099 62.7172V62.7273H142.099ZM142.099 93V95H144.099V93H142.099ZM127.577 93H125.577V95H127.577V93ZM127.577 40.6364V38.6364H125.577V40.6364H127.577ZM141.418 40.6364H143.418V38.6364H141.418V40.6364ZM141.418 49.875H139.418V51.875H141.418V49.875ZM142.031 49.875V51.875H143.41L143.9 50.5864L142.031 49.875ZM147.861 42.6477L148.951 44.3246L148.961 44.3182L147.861 42.6477ZM173.599 49.1591L171.816 50.0645L171.819 50.07L173.599 49.1591ZM175.849 93V95H177.849V93H175.849ZM161.327 93H159.327V95H161.327V93ZM161.327 62.25L159.327 62.2358L159.327 62.2429V62.25H161.327ZM158.872 54.75L157.395 56.0981L157.403 56.1073L158.872 54.75ZM146.838 53.2841L145.86 51.5395L145.849 51.546L146.838 53.2841ZM143.361 56.9659L141.587 56.0416L141.582 56.0512L143.361 56.9659ZM140.099 62.7273V93H144.099V62.7273H140.099ZM142.099 91H127.577V95H142.099V91ZM129.577 93V40.6364H125.577V93H129.577ZM127.577 42.6364H141.418V38.6364H127.577V42.6364ZM139.418 40.6364V49.875H143.418V40.6364H139.418ZM141.418 51.875H142.031V47.875H141.418V51.875ZM143.9 50.5864C144.909 47.9365 146.58 45.8658 148.951 44.3246L146.771 40.9708C143.687 42.9751 141.472 45.7226 140.162 49.1636L143.9 50.5864ZM148.961 44.3182C151.303 42.7758 154.21 41.9545 157.781 41.9545V37.9545C153.58 37.9545 149.873 38.9287 146.761 40.9772L148.961 44.3182ZM157.781 41.9545C161.118 41.9545 163.927 42.6817 166.279 44.0648L168.307 40.617C165.249 38.8183 161.717 37.9545 157.781 37.9545V41.9545ZM166.279 44.0648C168.635 45.4509 170.479 47.4306 171.816 50.0645L175.383 48.2537C173.72 44.9785 171.359 42.4128 168.307 40.617L166.279 44.0648ZM171.819 50.07C173.145 52.6612 173.849 55.8344 173.849 59.6591H177.849C177.849 55.3474 177.054 51.5206 175.38 48.2481L171.819 50.07ZM173.849 59.6591V93H177.849V59.6591H173.849ZM175.849 91H161.327V95H175.849V91ZM163.327 93V62.25H159.327V93H163.327ZM163.327 62.2642C163.352 58.7142 162.441 55.6656 160.341 53.3927L157.403 56.1073C158.621 57.4253 159.347 59.3768 159.327 62.2358L163.327 62.2642ZM160.35 53.4019C158.242 51.0926 155.38 50.0227 152.02 50.0227V54.0227C154.478 54.0227 156.184 54.7711 157.395 56.0981L160.35 53.4019ZM152.02 50.0227C149.77 50.0227 147.698 50.5094 145.86 51.5395L147.816 55.0287C148.978 54.377 150.36 54.0227 152.02 54.0227V50.0227ZM145.849 51.546C144.013 52.5907 142.593 54.1121 141.587 56.0416L145.134 57.8902C145.811 56.5925 146.708 55.6593 147.827 55.0222L145.849 51.546ZM141.582 56.0512C140.59 57.9811 140.125 60.224 140.1 62.7071L144.099 62.7475C144.12 60.7305 144.496 59.1326 145.139 57.8806L141.582 56.0512ZM193.295 92.25L192.471 94.0724L192.478 94.0753L192.485 94.0783L193.295 92.25ZM187.091 87.0341L185.412 88.1206L185.418 88.1302L185.424 88.1397L187.091 87.0341ZM186.443 71.0455L184.684 70.0948L184.684 70.0948L186.443 71.0455ZM190.807 66.2727L189.712 64.5992L189.712 64.5992L190.807 66.2727ZM197.08 63.5455L196.577 61.6096L196.572 61.6108L197.08 63.5455ZM204.511 62.25L204.703 64.2408L204.711 64.24L204.719 64.2392L204.511 62.25ZM211.875 61.3636L212.165 63.3426L212.176 63.3408L212.188 63.339L211.875 61.3636ZM215.932 60.0682L214.812 58.411L214.812 58.411L215.932 60.0682ZM215.148 52.3295L213.825 53.83L213.832 53.8355L213.838 53.8409L215.148 52.3295ZM203.182 52.2955L204.367 53.9068L204.374 53.9011L204.382 53.8955L203.182 52.2955ZM200.114 56.5909L199.952 58.5843L201.58 58.7166L202.035 57.147L200.114 56.5909ZM186.682 55.5L184.726 55.0809L184.249 57.309L186.52 57.4934L186.682 55.5ZM190.705 47.25L192.219 48.5565L192.225 48.5491L190.705 47.25ZM198.443 41.8636L199.179 43.7234L199.186 43.7206L198.443 41.8636ZM217.841 40.9773L217.344 42.9146L217.348 42.9156L217.841 40.9773ZM224.966 44.1477L223.827 45.7921L223.836 45.7979L224.966 44.1477ZM229.909 49.6705L228.146 50.6144L228.15 50.6219L229.909 49.6705ZM231.716 93V95H233.716V93H231.716ZM217.943 93H215.943V95H217.943V93ZM217.943 85.7386H219.943V83.7386H217.943V85.7386ZM217.534 85.7386V83.7386H216.313L215.755 84.8245L217.534 85.7386ZM214.159 90.0682L215.473 91.5763L215.48 91.5704L215.486 91.5643L214.159 90.0682ZM209.08 92.9659L209.732 94.8567L209.741 94.8533L209.751 94.8499L209.08 92.9659ZM212.045 82.7045L212.96 84.4834L212.969 84.4784L212.979 84.4733L212.045 82.7045ZM215.898 79.2273L214.214 78.1484L214.214 78.1484L215.898 79.2273ZM217.295 68.7273H219.295V65.0419L216.205 67.0504L217.295 68.7273ZM215.42 69.5455L215.985 71.4642L216.002 71.459L216.02 71.4534L215.42 69.5455ZM212.795 70.1932L213.161 72.1594L213.183 72.1553L213.205 72.1508L212.795 70.1932ZM209.864 70.7045L210.14 72.6854L210.163 72.6822L210.185 72.6786L209.864 70.7045ZM207.205 71.0795L206.922 69.0996L206.914 69.1007L207.205 71.0795ZM202.739 72.2727L203.526 74.111L203.526 74.111L202.739 72.2727ZM199.773 74.4886L201.354 75.7138L201.361 75.7044L201.368 75.6949L199.773 74.4886ZM200.864 82.4318L199.684 84.0471L199.699 84.0576L199.713 84.0679L200.864 82.4318ZM202.227 91.9886C199.119 91.9886 196.425 91.4501 194.106 90.4217L192.485 94.0783C195.393 95.3681 198.654 95.9886 202.227 95.9886V91.9886ZM194.119 90.4276C191.834 89.394 190.064 87.8972 188.758 85.9285L185.424 88.1397C187.164 90.7619 189.53 92.7423 192.471 94.0724L194.119 90.4276ZM188.77 85.9476C187.526 84.0257 186.841 81.5407 186.841 78.375H182.841C182.841 82.1184 183.655 85.4062 185.412 88.1206L188.77 85.9476ZM186.841 78.375C186.841 75.7029 187.332 73.6079 188.203 71.9961L184.684 70.0948C183.418 72.4376 182.841 75.2289 182.841 78.375H186.841ZM188.203 71.9961C189.117 70.3047 190.345 68.9648 191.902 67.9463L189.712 64.5992C187.587 65.9898 185.906 67.8317 184.684 70.0948L188.203 71.9961ZM191.902 67.9463C193.545 66.8711 195.434 66.0444 197.587 65.4801L196.572 61.6108C194.043 62.2737 191.75 63.2652 189.712 64.5992L191.902 67.9463ZM197.582 65.4813C199.837 64.8958 202.21 64.4813 204.703 64.2408L204.319 60.2592C201.63 60.5187 199.049 60.9679 196.577 61.6096L197.582 65.4813ZM204.719 64.2392C207.777 63.9197 210.262 63.6209 212.165 63.3426L211.585 59.3847C209.76 59.6518 207.336 59.944 204.304 60.2608L204.719 64.2392ZM212.188 63.339C214.134 63.0305 215.84 62.5438 217.052 61.7254L214.812 58.411C214.342 58.7289 213.343 59.1059 211.562 59.3883L212.188 63.339ZM217.052 61.7254C218.503 60.7446 219.193 59.2473 219.193 57.5455H215.193C215.193 58.0709 215.042 58.2554 214.812 58.411L217.052 61.7254ZM219.193 57.5455V57.3409H215.193V57.5455H219.193ZM219.193 57.3409C219.193 54.7268 218.346 52.4547 216.458 50.8182L213.838 53.8409C214.677 54.568 215.193 55.6368 215.193 57.3409H219.193ZM216.47 50.8291C214.644 49.2197 212.197 48.5568 209.42 48.5568V52.5568C211.599 52.5568 212.97 53.0758 213.825 53.83L216.47 50.8291ZM209.42 48.5568C206.525 48.5568 203.977 49.1988 201.982 50.6955L204.382 53.8955C205.477 53.0739 207.089 52.5568 209.42 52.5568V48.5568ZM201.997 50.6842C200.122 52.0629 198.823 53.8551 198.193 56.0348L202.035 57.147C202.404 55.8722 203.151 54.8007 204.367 53.9068L201.997 50.6842ZM200.276 54.5975L186.844 53.5066L186.52 57.4934L199.952 58.5843L200.276 54.5975ZM188.637 55.9191C189.253 53.0441 190.452 50.6046 192.219 48.5565L189.19 45.9435C186.957 48.5318 185.474 51.5923 184.726 55.0809L188.637 55.9191ZM192.225 48.5491C193.992 46.4812 196.291 44.8659 199.179 43.7233L197.707 40.0039C194.277 41.3613 191.417 43.337 189.184 45.9509L192.225 48.5491ZM199.186 43.7206C202.086 42.5607 205.507 41.9545 209.489 41.9545V37.9545C205.107 37.9545 201.164 38.6211 197.7 40.0067L199.186 43.7206ZM209.489 41.9545C212.24 41.9545 214.857 42.2768 217.344 42.9146L218.338 39.0399C215.507 38.3141 212.555 37.9545 209.489 37.9545V41.9545ZM217.348 42.9156C219.822 43.5446 221.974 44.5089 223.827 45.7921L226.104 42.5033C223.822 40.9229 221.223 39.7736 218.334 39.0389L217.348 42.9156ZM223.836 45.7979C225.66 47.0472 227.092 48.6451 228.146 50.6144L231.672 48.7265C230.318 46.1958 228.453 44.1119 226.096 42.4976L223.836 45.7979ZM228.15 50.6219C229.164 52.4971 229.716 54.825 229.716 57.6818H233.716C233.716 54.3113 233.063 51.2983 231.668 48.719L228.15 50.6219ZM229.716 57.6818V93H233.716V57.6818H229.716ZM231.716 91H217.943V95H231.716V91ZM219.943 93V85.7386H215.943V93H219.943ZM217.943 83.7386H217.534V87.7386H217.943V83.7386ZM215.755 84.8245C215.03 86.2353 214.06 87.4824 212.832 88.572L215.486 91.5643C217.076 90.154 218.356 88.5147 219.313 86.6528L215.755 84.8245ZM212.846 88.56C211.647 89.6039 210.179 90.4511 208.408 91.0819L209.751 94.8499C211.935 94.0717 213.853 92.987 215.473 91.5763L212.846 88.56ZM208.428 91.0752C206.703 91.6697 204.647 91.9886 202.227 91.9886V95.9886C204.989 95.9886 207.501 95.6257 209.732 94.8567L208.428 91.0752ZM206.386 85.9659C208.789 85.9659 210.998 85.4914 212.96 84.4834L211.131 80.9257C209.82 81.5995 208.256 81.9659 206.386 81.9659V85.9659ZM212.979 84.4733C214.898 83.4603 216.45 82.0723 217.582 80.3061L214.214 78.1484C213.481 79.2914 212.465 80.2216 211.112 80.9358L212.979 84.4733ZM217.582 80.3061C218.734 78.5081 219.295 76.4811 219.295 74.2841H215.295C215.295 75.7689 214.925 77.0373 214.214 78.1484L217.582 80.3061ZM219.295 74.2841V68.7273H215.295V74.2841H219.295ZM216.205 67.0504C215.962 67.2089 215.525 67.416 214.821 67.6375L216.02 71.4534C216.906 71.1749 217.72 70.8365 218.385 70.4042L216.205 67.0504ZM214.856 67.6267C214.145 67.836 213.323 68.0395 212.386 68.2356L213.205 72.1508C214.223 71.9378 215.151 71.7095 215.985 71.4642L214.856 67.6267ZM212.43 68.2269C211.467 68.406 210.505 68.5739 209.542 68.7305L210.185 72.6786C211.177 72.517 212.169 72.344 213.161 72.1594L212.43 68.2269ZM209.587 68.7237C208.608 68.8603 207.72 68.9856 206.922 69.0996L207.487 73.0594C208.28 72.9462 209.164 72.8215 210.14 72.6854L209.587 68.7237ZM206.914 69.1007C205.078 69.37 203.416 69.8066 201.951 70.4344L203.526 74.111C204.607 73.6479 205.922 73.2891 207.495 73.0584L206.914 69.1007ZM201.951 70.4344C200.418 71.0914 199.127 72.0259 198.177 73.2824L201.368 75.6949C201.827 75.0877 202.514 74.545 203.526 74.111L201.951 70.4344ZM198.192 73.2635C197.168 74.5851 196.716 76.1759 196.716 77.8977H200.716C200.716 76.8923 200.969 76.2103 201.354 75.7138L198.192 73.2635ZM196.716 77.8977C196.716 80.4285 197.672 82.5776 199.684 84.0471L202.043 80.8166C201.192 80.1951 200.716 79.3215 200.716 77.8977H196.716ZM199.713 84.0679C201.581 85.3813 203.852 85.9659 206.386 85.9659V81.9659C204.466 81.9659 203.055 81.5278 202.014 80.7958L199.713 84.0679Z" fill="white" mask="url(#path-2-outside-1_15_2)"/>
<mask id="path-4-outside-2_15_2" maskUnits="userSpaceOnUse" x="235" y="40" width="162" height="56" fill="black">
<rect fill="white" x="235" y="40" width="162" height="56"/>
<path d="M243.415 93.6463C241.775 93.6463 240.366 93.0663 239.19 91.9062C238.03 90.7296 237.45 89.321 237.45 87.6804C237.45 86.0563 238.03 84.6643 239.19 83.5043C240.366 82.3442 241.775 81.7642 243.415 81.7642C245.006 81.7642 246.398 82.3442 247.592 83.5043C248.785 84.6643 249.381 86.0563 249.381 87.6804C249.381 88.7741 249.1 89.7768 248.536 90.6882C247.989 91.5831 247.268 92.304 246.374 92.8509C245.479 93.3812 244.493 93.6463 243.415 93.6463ZM267.049 93H255.515L273.09 42.0909H286.96L304.51 93H292.976L280.224 53.7244H279.826L267.049 93ZM266.328 72.9893H293.573V81.3913H266.328V72.9893ZM310.638 93V42.0909H330.723C334.584 42.0909 337.874 42.8284 340.591 44.3033C343.309 45.7616 345.381 47.7917 346.806 50.3935C348.248 52.9787 348.969 55.9616 348.969 59.3423C348.969 62.723 348.239 65.706 346.781 68.2912C345.323 70.8764 343.21 72.8899 340.442 74.3317C337.691 75.7734 334.36 76.4943 330.449 76.4943H317.648V67.8686H328.709C330.781 67.8686 332.488 67.5123 333.83 66.7997C335.189 66.0705 336.2 65.0679 336.863 63.7919C337.542 62.4993 337.882 61.0161 337.882 59.3423C337.882 57.652 337.542 56.1771 336.863 54.9176C336.2 53.6416 335.189 52.6555 333.83 51.9595C332.471 51.2469 330.748 50.8906 328.66 50.8906H321.401V93H310.638ZM355.96 93V42.0909H376.045C379.906 42.0909 383.196 42.8284 385.914 44.3033C388.632 45.7616 390.703 47.7917 392.128 50.3935C393.57 52.9787 394.291 55.9616 394.291 59.3423C394.291 62.723 393.562 65.706 392.103 68.2912C390.645 70.8764 388.532 72.8899 385.765 74.3317C383.014 75.7734 379.683 76.4943 375.772 76.4943H362.97V67.8686H374.032C376.103 67.8686 377.81 67.5123 379.152 66.7997C380.511 66.0705 381.522 65.0679 382.185 63.7919C382.864 62.4993 383.204 61.0161 383.204 59.3423C383.204 57.652 382.864 56.1771 382.185 54.9176C381.522 53.6416 380.511 52.6555 379.152 51.9595C377.793 51.2469 376.07 50.8906 373.982 50.8906H366.723V93H355.96Z"/>
</mask>
<path d="M243.415 93.6463C241.775 93.6463 240.366 93.0663 239.19 91.9062C238.03 90.7296 237.45 89.321 237.45 87.6804C237.45 86.0563 238.03 84.6643 239.19 83.5043C240.366 82.3442 241.775 81.7642 243.415 81.7642C245.006 81.7642 246.398 82.3442 247.592 83.5043C248.785 84.6643 249.381 86.0563 249.381 87.6804C249.381 88.7741 249.1 89.7768 248.536 90.6882C247.989 91.5831 247.268 92.304 246.374 92.8509C245.479 93.3812 244.493 93.6463 243.415 93.6463ZM267.049 93H255.515L273.09 42.0909H286.96L304.51 93H292.976L280.224 53.7244H279.826L267.049 93ZM266.328 72.9893H293.573V81.3913H266.328V72.9893ZM310.638 93V42.0909H330.723C334.584 42.0909 337.874 42.8284 340.591 44.3033C343.309 45.7616 345.381 47.7917 346.806 50.3935C348.248 52.9787 348.969 55.9616 348.969 59.3423C348.969 62.723 348.239 65.706 346.781 68.2912C345.323 70.8764 343.21 72.8899 340.442 74.3317C337.691 75.7734 334.36 76.4943 330.449 76.4943H317.648V67.8686H328.709C330.781 67.8686 332.488 67.5123 333.83 66.7997C335.189 66.0705 336.2 65.0679 336.863 63.7919C337.542 62.4993 337.882 61.0161 337.882 59.3423C337.882 57.652 337.542 56.1771 336.863 54.9176C336.2 53.6416 335.189 52.6555 333.83 51.9595C332.471 51.2469 330.748 50.8906 328.66 50.8906H321.401V93H310.638ZM355.96 93V42.0909H376.045C379.906 42.0909 383.196 42.8284 385.914 44.3033C388.632 45.7616 390.703 47.7917 392.128 50.3935C393.57 52.9787 394.291 55.9616 394.291 59.3423C394.291 62.723 393.562 65.706 392.103 68.2912C390.645 70.8764 388.532 72.8899 385.765 74.3317C383.014 75.7734 379.683 76.4943 375.772 76.4943H362.97V67.8686H374.032C376.103 67.8686 377.81 67.5123 379.152 66.7997C380.511 66.0705 381.522 65.0679 382.185 63.7919C382.864 62.4993 383.204 61.0161 383.204 59.3423C383.204 57.652 382.864 56.1771 382.185 54.9176C381.522 53.6416 380.511 52.6555 379.152 51.9595C377.793 51.2469 376.07 50.8906 373.982 50.8906H366.723V93H355.96Z" fill="#6366F1"/>
<path d="M239.19 91.9062L237.765 93.3104L237.775 93.3205L237.785 93.3305L239.19 91.9062ZM239.19 83.5043L237.785 82.0801L237.78 82.085L237.775 82.09L239.19 83.5043ZM247.592 83.5043L246.197 84.9383L246.197 84.9383L247.592 83.5043ZM248.536 90.6882L246.835 89.6366L246.83 89.6453L248.536 90.6882ZM246.374 92.8509L247.393 94.5714L247.405 94.5645L247.416 94.5574L246.374 92.8509ZM243.415 91.6463C242.305 91.6463 241.399 91.2761 240.594 90.482L237.785 93.3305C239.333 94.8565 241.245 95.6463 243.415 95.6463V91.6463ZM240.614 90.5021C239.82 89.6967 239.45 88.7913 239.45 87.6804H235.45C235.45 89.8507 236.239 91.7626 237.765 93.3104L240.614 90.5021ZM239.45 87.6804C239.45 86.5928 239.815 85.7077 240.604 84.9185L237.775 82.09C236.245 83.6209 235.45 85.5199 235.45 87.6804H239.45ZM240.594 84.9285C241.399 84.1344 242.305 83.7642 243.415 83.7642V79.7642C241.245 79.7642 239.333 80.554 237.785 82.0801L240.594 84.9285ZM243.415 83.7642C244.46 83.7642 245.359 84.1226 246.197 84.9383L248.986 82.0703C247.438 80.5658 245.553 79.7642 243.415 79.7642V83.7642ZM246.197 84.9383C247.014 85.7322 247.381 86.6114 247.381 87.6804H251.381C251.381 85.5013 250.556 83.5964 248.986 82.0703L246.197 84.9383ZM247.381 87.6804C247.381 88.4108 247.199 89.0479 246.835 89.6366L250.237 91.7399C251 90.5056 251.381 89.1375 251.381 87.6804H247.381ZM246.83 89.6453C246.448 90.2695 245.955 90.7629 245.331 91.1443L247.416 94.5574C248.582 93.8451 249.53 92.8967 250.243 91.7311L246.83 89.6453ZM245.354 91.1303C244.779 91.471 244.147 91.6463 243.415 91.6463V95.6463C244.838 95.6463 246.178 95.2913 247.393 94.5714L245.354 91.1303ZM267.049 93V95H268.502L268.951 93.6187L267.049 93ZM255.515 93L253.625 92.3474L252.709 95H255.515V93ZM273.09 42.0909V40.0909H271.664L271.199 41.4383L273.09 42.0909ZM286.96 42.0909L288.851 41.4391L288.386 40.0909H286.96V42.0909ZM304.51 93V95H307.315L306.401 92.3482L304.51 93ZM292.976 93L291.074 93.6176L291.523 95H292.976V93ZM280.224 53.7244L282.126 53.1068L281.677 51.7244H280.224V53.7244ZM279.826 53.7244V51.7244H278.374L277.924 53.1057L279.826 53.7244ZM266.328 72.9893V70.9893H264.328V72.9893H266.328ZM293.573 72.9893H295.573V70.9893H293.573V72.9893ZM293.573 81.3913V83.3913H295.573V81.3913H293.573ZM266.328 81.3913H264.328V83.3913H266.328V81.3913ZM267.049 91H255.515V95H267.049V91ZM257.406 93.6526L274.98 42.7435L271.199 41.4383L253.625 92.3474L257.406 93.6526ZM273.09 44.0909H286.96V40.0909H273.09V44.0909ZM285.07 42.7427L302.619 93.6518L306.401 92.3482L288.851 41.4391L285.07 42.7427ZM304.51 91H292.976V95H304.51V91ZM294.878 92.3824L282.126 53.1068L278.322 54.3421L291.074 93.6176L294.878 92.3824ZM280.224 51.7244H279.826V55.7244H280.224V51.7244ZM277.924 53.1057L265.147 92.3813L268.951 93.6187L281.728 54.3431L277.924 53.1057ZM266.328 74.9893H293.573V70.9893H266.328V74.9893ZM291.573 72.9893V81.3913H295.573V72.9893H291.573ZM293.573 79.3913H266.328V83.3913H293.573V79.3913ZM268.328 81.3913V72.9893H264.328V81.3913H268.328ZM310.638 93H308.638V95H310.638V93ZM310.638 42.0909V40.0909H308.638V42.0909H310.638ZM340.591 44.3033L339.637 46.0611L339.646 46.0656L340.591 44.3033ZM346.806 50.3935L345.052 51.3543L345.056 51.361L345.059 51.3676L346.806 50.3935ZM340.442 74.3317L339.518 72.5579L339.514 72.5602L340.442 74.3317ZM317.648 76.4943H315.648V78.4943H317.648V76.4943ZM317.648 67.8686V65.8686H315.648V67.8686H317.648ZM333.83 66.7997L334.768 68.5662L334.776 68.562L333.83 66.7997ZM336.863 63.7919L335.092 62.8613L335.088 62.8699L336.863 63.7919ZM336.863 54.9176L335.088 55.8396L335.095 55.8534L335.103 55.8672L336.863 54.9176ZM333.83 51.9595L332.901 53.7308L332.91 53.7352L332.918 53.7396L333.83 51.9595ZM321.401 50.8906V48.8906H319.401V50.8906H321.401ZM321.401 93V95H323.401V93H321.401ZM312.638 93V42.0909H308.638V93H312.638ZM310.638 44.0909H330.723V40.0909H310.638V44.0909ZM330.723 44.0909C334.332 44.0909 337.277 44.7799 339.637 46.0611L341.545 42.5454C338.471 40.8768 334.836 40.0909 330.723 40.0909V44.0909ZM339.646 46.0656C342.036 47.3484 343.82 49.1063 345.052 51.3543L348.56 49.4326C346.941 46.477 344.582 44.1748 341.537 42.5409L339.646 46.0656ZM345.059 51.3676C346.313 53.6149 346.969 56.2536 346.969 59.3423H350.969C350.969 55.6697 350.183 52.3425 348.553 49.4193L345.059 51.3676ZM346.969 59.3423C346.969 62.4273 346.306 65.0628 345.039 67.3085L348.523 69.2738C350.173 66.3491 350.969 63.0187 350.969 59.3423H346.969ZM345.039 67.3085C343.781 69.5387 341.961 71.2855 339.518 72.5579L341.366 76.1054C344.459 74.4944 346.864 72.2142 348.523 69.2738L345.039 67.3085ZM339.514 72.5602C337.114 73.8179 334.119 74.4943 330.449 74.4943V78.4943C334.602 78.4943 338.269 77.7289 341.371 76.1031L339.514 72.5602ZM330.449 74.4943H317.648V78.4943H330.449V74.4943ZM319.648 76.4943V67.8686H315.648V76.4943H319.648ZM317.648 69.8686H328.709V65.8686H317.648V69.8686ZM328.709 69.8686C330.995 69.8686 333.051 69.4776 334.768 68.5662L332.892 65.0332C331.924 65.547 330.567 65.8686 328.709 65.8686V69.8686ZM334.776 68.562C336.462 67.6571 337.775 66.3734 338.638 64.7139L335.088 62.8699C334.624 63.7625 333.916 64.484 332.884 65.0374L334.776 68.562ZM338.633 64.7225C339.484 63.1034 339.882 61.2926 339.882 59.3423H335.882C335.882 60.7396 335.6 61.8952 335.092 62.8613L338.633 64.7225ZM339.882 59.3423C339.882 57.3806 339.486 55.5679 338.623 53.968L335.103 55.8672C335.598 56.7862 335.882 57.9234 335.882 59.3423H339.882ZM338.638 53.9956C337.771 52.3274 336.446 51.0525 334.742 50.1794L332.918 53.7396C333.932 54.2586 334.629 54.9557 335.088 55.8396L338.638 53.9956ZM334.759 50.1883C333.029 49.2811 330.96 48.8906 328.66 48.8906V52.8906C330.535 52.8906 331.913 53.2127 332.901 53.7308L334.759 50.1883ZM328.66 48.8906H321.401V52.8906H328.66V48.8906ZM319.401 50.8906V93H323.401V50.8906H319.401ZM321.401 91H310.638V95H321.401V91ZM355.96 93H353.96V95H355.96V93ZM355.96 42.0909V40.0909H353.96V42.0909H355.96ZM385.914 44.3033L384.96 46.0611L384.968 46.0656L385.914 44.3033ZM392.128 50.3935L390.374 51.3543L390.378 51.361L390.381 51.3676L392.128 50.3935ZM385.765 74.3317L384.841 72.5579L384.836 72.5602L385.765 74.3317ZM362.97 76.4943H360.97V78.4943H362.97V76.4943ZM362.97 67.8686V65.8686H360.97V67.8686H362.97ZM379.152 66.7997L380.09 68.5662L380.098 68.562L379.152 66.7997ZM382.185 63.7919L380.415 62.8613L380.41 62.8699L382.185 63.7919ZM382.185 54.9176L380.41 55.8396L380.417 55.8534L380.425 55.8672L382.185 54.9176ZM379.152 51.9595L378.224 53.7308L378.232 53.7352L378.241 53.7396L379.152 51.9595ZM366.723 50.8906V48.8906H364.723V50.8906H366.723ZM366.723 93V95H368.723V93H366.723ZM357.96 93V42.0909H353.96V93H357.96ZM355.96 44.0909H376.045V40.0909H355.96V44.0909ZM376.045 44.0909C379.655 44.0909 382.599 44.7799 384.96 46.0611L386.868 42.5454C383.793 40.8768 380.158 40.0909 376.045 40.0909V44.0909ZM384.968 46.0656C387.359 47.3484 389.143 49.1063 390.374 51.3543L393.882 49.4326C392.263 46.477 389.904 44.1748 386.859 42.5409L384.968 46.0656ZM390.381 51.3676C391.635 53.6149 392.291 56.2536 392.291 59.3423H396.291C396.291 55.6697 395.505 52.3425 393.875 49.4193L390.381 51.3676ZM392.291 59.3423C392.291 62.4273 391.628 65.0628 390.361 67.3085L393.845 69.2738C395.495 66.3491 396.291 63.0187 396.291 59.3423H392.291ZM390.361 67.3085C389.103 69.5387 387.283 71.2855 384.841 72.5579L386.689 76.1054C389.781 74.4944 392.187 72.2142 393.845 69.2738L390.361 67.3085ZM384.836 72.5602C382.436 73.8179 379.441 74.4943 375.772 74.4943V78.4943C379.924 78.4943 383.591 77.7289 386.693 76.1031L384.836 72.5602ZM375.772 74.4943H362.97V78.4943H375.772V74.4943ZM364.97 76.4943V67.8686H360.97V76.4943H364.97ZM362.97 69.8686H374.032V65.8686H362.97V69.8686ZM374.032 69.8686C376.317 69.8686 378.373 69.4776 380.09 68.5662L378.215 65.0332C377.247 65.547 375.889 65.8686 374.032 65.8686V69.8686ZM380.098 68.562C381.785 67.6571 383.098 66.3734 383.96 64.7139L380.41 62.8699C379.947 63.7625 379.238 64.484 378.207 65.0374L380.098 68.562ZM383.955 64.7225C384.806 63.1034 385.204 61.2926 385.204 59.3423H381.204C381.204 60.7396 380.923 61.8952 380.415 62.8613L383.955 64.7225ZM385.204 59.3423C385.204 57.3806 384.808 55.5679 383.945 53.968L380.425 55.8672C380.921 56.7862 381.204 57.9234 381.204 59.3423H385.204ZM383.96 53.9956C383.093 52.3274 381.769 51.0525 380.064 50.1794L378.241 53.7396C379.254 54.2586 379.951 54.9557 380.41 55.8396L383.96 53.9956ZM380.081 50.1883C378.351 49.2811 376.282 48.8906 373.982 48.8906V52.8906C375.858 52.8906 377.236 53.2127 378.224 53.7308L380.081 50.1883ZM373.982 48.8906H366.723V52.8906H373.982V48.8906ZM364.723 50.8906V93H368.723V50.8906H364.723ZM366.723 91H355.96V95H366.723V91Z" fill="white" mask="url(#path-4-outside-2_15_2)"/>
</svg>
