<svg width="962" height="596" viewBox="0 0 962 596" fill="none" xmlns="http://www.w3.org/2000/svg">
<rect x="0.5" y="0.5" width="961" height="595" fill="#1E1E1E" stroke="black"/>
<rect x="265" y="161" width="420" height="270" rx="25" fill="#D32929"/>
<path d="M548.5 289.438C553.167 292.132 553.167 298.868 548.5 301.562L429.25 370.411C424.583 373.105 418.75 369.738 418.75 364.349L418.75 226.651C418.75 221.262 424.583 217.895 429.25 220.589L548.5 289.438Z" fill="white"/>
<path d="M308.102 538H292.284L316.386 468.182H335.409L359.477 538H343.659L326.17 484.136H325.625L308.102 538ZM307.114 510.557H344.477V522.08H307.114V510.557ZM409.957 500.568L396.662 501.386C396.435 500.25 395.946 499.227 395.196 498.318C394.446 497.386 393.457 496.648 392.23 496.102C391.026 495.534 389.582 495.25 387.901 495.25C385.651 495.25 383.753 495.727 382.207 496.682C380.662 497.614 379.889 498.864 379.889 500.432C379.889 501.682 380.389 502.739 381.389 503.602C382.389 504.466 384.105 505.159 386.537 505.682L396.014 507.591C401.105 508.636 404.901 510.318 407.401 512.636C409.901 514.955 411.151 518 411.151 521.773C411.151 525.205 410.139 528.216 408.116 530.807C406.116 533.398 403.366 535.42 399.866 536.875C396.389 538.307 392.378 539.023 387.832 539.023C380.901 539.023 375.378 537.58 371.264 534.693C367.173 531.784 364.776 527.83 364.071 522.83L378.355 522.08C378.787 524.193 379.832 525.807 381.491 526.92C383.151 528.011 385.276 528.557 387.866 528.557C390.412 528.557 392.457 528.068 394.003 527.091C395.571 526.091 396.366 524.807 396.389 523.239C396.366 521.92 395.81 520.841 394.719 520C393.628 519.136 391.946 518.477 389.673 518.023L380.605 516.216C375.491 515.193 371.685 513.42 369.185 510.898C366.707 508.375 365.469 505.159 365.469 501.25C365.469 497.886 366.378 494.989 368.196 492.557C370.037 490.125 372.616 488.25 375.935 486.932C379.276 485.614 383.185 484.955 387.662 484.955C394.276 484.955 399.48 486.352 403.276 489.148C407.094 491.943 409.321 495.75 409.957 500.568ZM463.864 500.568L450.568 501.386C450.341 500.25 449.852 499.227 449.102 498.318C448.352 497.386 447.364 496.648 446.136 496.102C444.932 495.534 443.489 495.25 441.807 495.25C439.557 495.25 437.659 495.727 436.114 496.682C434.568 497.614 433.795 498.864 433.795 500.432C433.795 501.682 434.295 502.739 435.295 503.602C436.295 504.466 438.011 505.159 440.443 505.682L449.92 507.591C455.011 508.636 458.807 510.318 461.307 512.636C463.807 514.955 465.057 518 465.057 521.773C465.057 525.205 464.045 528.216 462.023 530.807C460.023 533.398 457.273 535.42 453.773 536.875C450.295 538.307 446.284 539.023 441.739 539.023C434.807 539.023 429.284 537.58 425.17 534.693C421.08 531.784 418.682 527.83 417.977 522.83L432.261 522.08C432.693 524.193 433.739 525.807 435.398 526.92C437.057 528.011 439.182 528.557 441.773 528.557C444.318 528.557 446.364 528.068 447.909 527.091C449.477 526.091 450.273 524.807 450.295 523.239C450.273 521.92 449.716 520.841 448.625 520C447.534 519.136 445.852 518.477 443.58 518.023L434.511 516.216C429.398 515.193 425.591 513.42 423.091 510.898C420.614 508.375 419.375 505.159 419.375 501.25C419.375 497.886 420.284 494.989 422.102 492.557C423.943 490.125 426.523 488.25 429.841 486.932C433.182 485.614 437.091 484.955 441.568 484.955C448.182 484.955 453.386 486.352 457.182 489.148C461 491.943 463.227 495.75 463.864 500.568ZM474.202 538V485.636H488.724V538H474.202ZM481.497 478.886C479.338 478.886 477.486 478.17 475.94 476.739C474.418 475.284 473.656 473.545 473.656 471.523C473.656 469.523 474.418 467.807 475.94 466.375C477.486 464.92 479.338 464.193 481.497 464.193C483.656 464.193 485.497 464.92 487.02 466.375C488.565 467.807 489.338 469.523 489.338 471.523C489.338 473.545 488.565 475.284 487.02 476.739C485.497 478.17 483.656 478.886 481.497 478.886ZM543.926 500.568L530.631 501.386C530.403 500.25 529.915 499.227 529.165 498.318C528.415 497.386 527.426 496.648 526.199 496.102C524.994 495.534 523.551 495.25 521.869 495.25C519.619 495.25 517.722 495.727 516.176 496.682C514.631 497.614 513.858 498.864 513.858 500.432C513.858 501.682 514.358 502.739 515.358 503.602C516.358 504.466 518.074 505.159 520.506 505.682L529.983 507.591C535.074 508.636 538.869 510.318 541.369 512.636C543.869 514.955 545.119 518 545.119 521.773C545.119 525.205 544.108 528.216 542.085 530.807C540.085 533.398 537.335 535.42 533.835 536.875C530.358 538.307 526.347 539.023 521.801 539.023C514.869 539.023 509.347 537.58 505.233 534.693C501.142 531.784 498.744 527.83 498.04 522.83L512.324 522.08C512.756 524.193 513.801 525.807 515.46 526.92C517.119 528.011 519.244 528.557 521.835 528.557C524.381 528.557 526.426 528.068 527.972 527.091C529.54 526.091 530.335 524.807 530.358 523.239C530.335 521.92 529.778 520.841 528.688 520C527.597 519.136 525.915 518.477 523.642 518.023L514.574 516.216C509.46 515.193 505.653 513.42 503.153 510.898C500.676 508.375 499.438 505.159 499.438 501.25C499.438 497.886 500.347 494.989 502.165 492.557C504.006 490.125 506.585 488.25 509.903 486.932C513.244 485.614 517.153 484.955 521.631 484.955C528.244 484.955 533.449 486.352 537.244 489.148C541.063 491.943 543.29 495.75 543.926 500.568ZM582.116 485.636V496.545H550.582V485.636H582.116ZM557.741 473.091H572.264V521.909C572.264 523.25 572.469 524.295 572.878 525.045C573.287 525.773 573.855 526.284 574.582 526.58C575.332 526.875 576.196 527.023 577.173 527.023C577.855 527.023 578.537 526.966 579.219 526.852C579.901 526.716 580.423 526.614 580.787 526.545L583.071 537.352C582.344 537.58 581.321 537.841 580.003 538.136C578.685 538.455 577.082 538.648 575.196 538.716C571.696 538.852 568.628 538.386 565.991 537.318C563.378 536.25 561.344 534.591 559.889 532.341C558.435 530.091 557.719 527.25 557.741 523.818V473.091ZM606.509 538.989C603.168 538.989 600.19 538.409 597.577 537.25C594.963 536.068 592.895 534.33 591.372 532.034C589.872 529.716 589.122 526.83 589.122 523.375C589.122 520.466 589.656 518.023 590.724 516.045C591.793 514.068 593.247 512.477 595.088 511.273C596.929 510.068 599.02 509.159 601.361 508.545C603.724 507.932 606.202 507.5 608.793 507.25C611.838 506.932 614.293 506.636 616.156 506.364C618.02 506.068 619.372 505.636 620.213 505.068C621.054 504.5 621.474 503.659 621.474 502.545V502.341C621.474 500.182 620.793 498.511 619.429 497.33C618.088 496.148 616.179 495.557 613.702 495.557C611.088 495.557 609.009 496.136 607.463 497.295C605.918 498.432 604.895 499.864 604.395 501.591L590.963 500.5C591.645 497.318 592.986 494.568 594.986 492.25C596.986 489.909 599.565 488.114 602.724 486.864C605.906 485.591 609.588 484.955 613.77 484.955C616.679 484.955 619.463 485.295 622.122 485.977C624.804 486.659 627.179 487.716 629.247 489.148C631.338 490.58 632.986 492.42 634.19 494.67C635.395 496.898 635.997 499.568 635.997 502.682V538H622.224V530.739H621.815C620.974 532.375 619.849 533.818 618.44 535.068C617.031 536.295 615.338 537.261 613.361 537.966C611.384 538.648 609.099 538.989 606.509 538.989ZM610.668 528.966C612.804 528.966 614.69 528.545 616.327 527.705C617.963 526.841 619.247 525.682 620.179 524.227C621.111 522.773 621.577 521.125 621.577 519.284V513.727C621.122 514.023 620.497 514.295 619.702 514.545C618.929 514.773 618.054 514.989 617.077 515.193C616.099 515.375 615.122 515.545 614.145 515.705C613.168 515.841 612.281 515.966 611.486 516.08C609.781 516.33 608.293 516.727 607.02 517.273C605.747 517.818 604.759 518.557 604.054 519.489C603.349 520.398 602.997 521.534 602.997 522.898C602.997 524.875 603.713 526.386 605.145 527.432C606.599 528.455 608.44 528.966 610.668 528.966Z" fill="white"/>
</svg>
